<?xml version="1.0" encoding="iso-8859-1"?>
<!-- Generator: Adobe Illustrator 16.0.0, SVG Export Plug-In . SVG Version: 6.00 Build 0)  -->
<!DOCTYPE svg PUBLIC "-//W3C//DTD SVG 1.1//EN" "http://www.w3.org/Graphics/SVG/1.1/DTD/svg11.dtd">
<svg version="1.1" id="Capa_1" xmlns="http://www.w3.org/2000/svg" xmlns:xlink="http://www.w3.org/1999/xlink" x="0px" y="0px"
	 width="48.899px" height="48.899px" viewBox="0 0 48.899 48.899" style="enable-background:new 0 0 48.899 48.899;"
	 xml:space="preserve">
<g>
	<g>
		<path d="M47.478,8.767L43.683,7.86l-0.341-3.886c-0.091-1.019-0.991-1.773-2.011-1.685L25.984,3.632L11,0.051
			c-0.996-0.239-1.996,0.377-2.232,1.371L7.86,5.216l-3.887,0.34C2.953,5.646,2.2,6.546,2.287,7.565l1.344,15.351l-3.58,14.982
			c-0.238,0.995,0.377,1.998,1.371,2.233l3.793,0.907l0.342,3.886c0.09,1.021,0.99,1.773,2.01,1.688l15.348-1.345l14.984,3.581
			c0.994,0.236,1.996-0.378,2.231-1.371l0.905-3.794l3.891-0.342c1.02-0.088,1.771-0.989,1.684-2.008l-1.344-15.352L48.849,11
			C49.086,10.004,48.472,9.003,47.478,8.767z M41.293,31.284l-17.459,1.526L7.271,34.259L6.79,28.737L6.298,23.11l-0.726-8.302
			L4.986,8.113l2.229-0.195l2.77-0.241l15.807-1.384l8.305-0.726l6.691-0.587l0.193,2.232l0.244,2.768l1.385,15.809l0.115,1.339
			l0.188,2.145l0.162,1.854L41.293,31.284z"/>
		<polygon points="33.108,11.22 32.606,12.175 33.677,12.03 33.715,13.108 34.569,12.448 35.146,13.36 35.554,12.36 36.508,12.865 
			36.362,11.793 37.44,11.751 36.78,10.898 37.692,10.324 36.694,9.917 37.166,9.014 37.196,8.961 37.039,8.981 36.113,8.761 
			36.086,8.029 35.369,8.583 35.129,8.526 34.656,7.778 34.42,8.356 34.248,8.776 33.293,8.272 33.44,9.342 32.362,9.384 
			33.022,10.237 32.11,10.812 		"/>
		<path d="M29.985,17.951c-0.144-0.162-0.354-0.247-0.568-0.229c-0.213,0.02-0.403,0.14-0.518,0.322l-3.262,5.372l-7.232-8.243
			c-0.283-0.322-0.861-0.271-1.084,0.096L8.842,29.227l-0.164,0.271l0.239,2.749l9.189-0.805l20.699-1.812
			c0.254-0.021,0.474-0.185,0.567-0.42c0.094-0.234,0.045-0.505-0.119-0.694L29.985,17.951z M20.24,20.712l-0.701,0.465
			c-0.067,0.046-0.149,0.074-0.231,0.082c-0.098,0.008-0.195-0.012-0.285-0.06l-0.741-0.402l-0.623,0.518
			c-0.148,0.123-0.355,0.147-0.529,0.068l-0.691-0.309c-0.133-0.061-0.231-0.173-0.272-0.311c-0.043-0.139-0.027-0.287,0.047-0.412
			l1.481-2.492c0.082-0.14,0.229-0.231,0.392-0.246h0.002c0.162-0.015,0.324,0.052,0.43,0.178l1.838,2.171
			c0.095,0.111,0.136,0.256,0.115,0.399C20.444,20.505,20.362,20.631,20.24,20.712z M31.789,23.473l-0.698,0.464
			c-0.071,0.05-0.149,0.073-0.231,0.081c-0.103,0.01-0.198-0.013-0.287-0.06l-0.743-0.402l-0.621,0.518
			c-0.149,0.124-0.356,0.15-0.53,0.071l-0.689-0.311c-0.131-0.061-0.229-0.172-0.274-0.311c-0.043-0.138-0.022-0.286,0.048-0.412
			l1.48-2.491c0.084-0.142,0.229-0.23,0.395-0.247l0,0c0.163-0.015,0.323,0.052,0.43,0.176l1.841,2.173
			c0.092,0.11,0.135,0.256,0.112,0.397C31.992,23.265,31.91,23.391,31.789,23.473z"/>
	</g>
</g>
<g>
</g>
<g>
</g>
<g>
</g>
<g>
</g>
<g>
</g>
<g>
</g>
<g>
</g>
<g>
</g>
<g>
</g>
<g>
</g>
<g>
</g>
<g>
</g>
<g>
</g>
<g>
</g>
<g>
</g>
</svg>
